<?xml version="1.0" encoding="UTF-8"?>
<svg xmlns="http://www.w3.org/2000/svg" viewBox="0 0 40 40">
  <defs>
    <style>
      .cls-1 {
        font-family: Comfortaa-Light, Comfortaa;
        font-size: 5px;
        font-variation-settings: 'wght' 300;
        font-weight: 300;
      }

      .cls-1, .cls-2, .cls-3 {
        fill: #30383a;
      }

      .cls-3 {
        font-family: Pacifico-Regular, Pacifico;
        font-size: 6.6px;
      }

      .cls-4 {
        letter-spacing: -.02em;
      }

      .cls-5 {
        letter-spacing: -.05em;
      }

      .cls-6 {
        letter-spacing: -.04em;
      }

      .cls-7 {
        letter-spacing: -.04em;
      }

      .cls-8 {
        letter-spacing: -.04em;
      }
    </style>
  </defs>
  <g id="type">
    <text class="cls-3" transform="translate(8.7 18.24)"><tspan class="cls-6" x="0" y="0">y</tspan><tspan class="cls-5" x="2.9" y="0">press Hills</tspan></text>
    <text class="cls-1" transform="translate(16.82 23.47)"><tspan class="cls-7" x="0" y="0">C</tspan><tspan x="3.64" y="0">at </tspan><tspan class="cls-8" x="10.51" y="0">C</tspan><tspan x="14.15" y="0">a</tspan><tspan class="cls-4" x="17.54" y="0">f</tspan><tspan x="19.26" y="0">é</tspan></text>
  </g>
  <g id="Layer_4" data-name="Layer 4">
    <path class="cls-2" d="M23.42,26.95v-1.91l-.64.43c-.36-.34-.83-.54-1.35-.54-.22,0-.43.04-.63.11l-.75-.7-.15,1.21c-1.07-.97-2.47-1.97-3.46-2.64-1.02-.69-2.17-1.12-3.38-1.19-.76-.04-1.27.06-1.95.14-.85.09-2.1.2-2.89.07-1.6-.26-2.75-.89-3.45-1.92-.69-1.02-.93-2.35-.7-3.98.22-1.56.64-2.88,1.25-3.94.61-1.06,1.33-1.83,2.15-2.29s1.63-.64,2.44-.51c1.19.19,1.69.9,1.52,2.14-.03.24-.12.56-.25.96-.1.32-.15.54-.17.66-.05.34.01.61.18.82.17.21.43.34.77.39.49.08.9-.11,1.24-.57.33-.46.56-1.11.68-1.93.17-1.24-.03-2.29-.61-3.15-.62-.93-1.67-1.48-3.15-1.65-.96-.11-1.95-.02-2.86.31-1.68.6-3.06,1.78-4.16,3.54-.9,1.44-1.49,3.16-1.77,5.16-.2,1.44-.09,2.75.33,3.93.42,1.18,1.13,2.15,2.12,2.91.99.76,2.22,1.26,3.68,1.49.84.13,1.75.18,2.71.13.33-.02.65-.06.98-.11-.11.73.07,1.47.46,2.1v5.79c0,.25.2.46.44.46s.44-.21.44-.46v-4.27l1.43,4.42c.08.24.33.37.55.29.23-.08.35-.35.27-.59l-1.38-4.25c.63.13,2.86.56,4.83.69l2.38,3.97c.13.22.4.28.6.14s.26-.43.13-.64l-1.47-2.45,2.85,3.03c.17.18.45.18.62,0,.17-.18.17-.48,0-.66l-3.2-3.4s.84.48,1.33.48c1.1,0,1.99-.91,1.99-2.02ZM22.3,27.05c.02-.09.08-.15.13-.14.05.01.07.09.05.18-.02.09-.08.15-.13.14-.05-.01-.07-.09-.05-.18ZM21.18,27.07c-.05,0-.09-.07-.09-.16s.04-.16.09-.16.09.07.09.16-.04.16-.09.16Z"/>
  </g>
</svg>